<svg xmlns="http://www.w3.org/2000/svg" viewBox="0 0 512 512"><rect width="512" height="512" rx="112" fill="#0F0F0F"/><circle cx="256" cy="256" r="168" fill="none" stroke="#FFC800" stroke-width="18" opacity=".45"/><path d="M247 92c8-14 26-14 34 0 5 9 8 33 8 67v65l116 62c14 8 22 22 22 38v21l-138-43v75l43 36v23l-67-21-67 21v-23l43-36v-75L103 345v-21c0-16 8-30 22-38l116-62v-65c0-34 3-58 6-67z" fill="#FFC800"/><text x="256" y="472" text-anchor="middle" font-size="52" font-family="Arial, sans-serif" font-weight="800" fill="#FFC800">PP</text></svg>
