<?xml version="1.0" encoding="UTF-8"?>
<svg id="Layer_2" data-name="Layer 2" xmlns="http://www.w3.org/2000/svg" viewBox="0 0 56.31 18.97">
  <g id="Layer_1-2" data-name="Layer 1">
    <g>
      <path d="M56.31,9.51h0c0-1.28-.83-2.37-2.07-2.71L30.84.38c-1.83-.5-3.53-.5-5.35,0L2.07,6.75C.83,7.09,0,8.18,0,9.46c0,.51.13,1,.37,1.42.36.62.95,1.09,1.69,1.3l23.4,6.42c1.83.5,3.53.5,5.35,0l23.41-6.38c1.24-.34,2.07-1.43,2.07-2.71ZM30.17,16.19c-1.4.38-2.64.38-4.04,0L2.72,9.77c-.15-.04-.23-.15-.24-.31,0-.15.09-.27.23-.31L26.14,2.78c1.4-.38,2.64-.38,4.04,0l23.4,6.42c.09.02.15.07.19.14.03.05.04.1.04.17,0,.15-.09.27-.23.31l-23.41,6.38Z"/>
      <circle cx="28.15" cy="9.49" r="3.09"/>
    </g>
  </g>
</svg>