<?xml version="1.0" encoding="UTF-8"?>
<svg id="Layer_2" data-name="Layer 2" xmlns="http://www.w3.org/2000/svg" viewBox="0 0 87.99 87.99">
  <g id="Layer_1-2" data-name="Layer 1">
    <g>
      <path d="M44,0C19.73,0,0,19.73,0,44s19.74,44,44,44,44-19.73,44-44S68.26,0,44,0ZM44,85.5c-22.89,0-41.5-18.62-41.5-41.5S21.11,2.49,44,2.49s41.5,18.62,41.5,41.5-18.62,41.5-41.5,41.5Z"/>
      <path d="M42.75,10.29v-3.02c0-.69.56-1.25,1.25-1.25s1.25.56,1.25,1.25v3.02c0,.69-.56,1.25-1.25,1.25s-1.25-.56-1.25-1.25Z"/>
      <path d="M11.53,44c0,.69-.56,1.25-1.25,1.25h-3.02c-.69,0-1.25-.56-1.25-1.25s.56-1.25,1.25-1.25h3.02c.69,0,1.25.56,1.25,1.25Z"/>
      <path d="M45.24,77.7v3.02c0,.69-.56,1.25-1.25,1.25s-1.25-.56-1.25-1.25v-3.02c0-.69.56-1.25,1.25-1.25s1.25.56,1.25,1.25Z"/>
      <path d="M81.96,44c0,.69-.56,1.25-1.25,1.25h-3.02c-.69,0-1.25-.56-1.25-1.25s.56-1.25,1.25-1.25h3.02c.69,0,1.25.56,1.25,1.25Z"/>
    </g>
  </g>
</svg>