<svg xmlns="http://www.w3.org/2000/svg" version="1.1" viewBox="-5.0 -10.0 110.0 135.0">
 <path fill="#FFC800" d="m50 2.5c-12.598 0-24.68 5.0039-33.586 13.914-8.9102 8.9062-13.914 20.988-13.914 33.586s5.0039 24.68 13.914 33.586c8.9062 8.9102 20.988 13.914 33.586 13.914s24.68-5.0039 33.586-13.914c8.9102-8.9062 13.914-20.988 13.914-33.586-0.015625-12.594-5.0234-24.668-13.93-33.57-8.9023-8.9062-20.977-13.914-33.57-13.93zm0 92.004c-11.805 0-23.125-4.6875-31.473-13.031s-13.039-19.664-13.039-31.465c0-11.805 4.6875-23.125 13.031-31.473s19.664-13.035 31.469-13.039c11.801 0 23.121 4.6875 31.469 13.035 8.3477 8.3477 13.035 19.664 13.035 31.469-0.011719 11.797-4.7031 23.109-13.043 31.449-8.3438 8.3438-19.652 13.039-31.449 13.055zm-2.9297-74.105c-0.28516-0.36328-0.38672-0.83984-0.27344-1.2891l1.7969-7.0938c0.23047-0.60156 0.80859-1.0039 1.4531-1.0039 0.64844 0 1.2266 0.40234 1.457 1.0039l1.7969 7.0938c0.11328 0.44922 0.011719 0.92578-0.27344 1.2891-0.28516 0.36328-0.71875 0.57812-1.1836 0.57812h-3.5898c-0.46484 0-0.89844-0.21484-1.1836-0.57812zm42.051 29.648c0 0.6875-0.46875 1.2891-1.1328 1.457l-7.0898 1.7969c-0.12109 0.027344-0.24609 0.042969-0.37109 0.042969-0.33203 0.003906-0.65625-0.10938-0.91797-0.31641-0.37109-0.28125-0.58594-0.71875-0.58594-1.1836v-3.5898c0-0.46484 0.21484-0.90234 0.58594-1.1836 0.36719-0.27734 0.83984-0.37891 1.2891-0.27344l7.0898 1.7969c0.66406 0.16797 1.1328 0.76953 1.1328 1.4531zm-36.191 29.555c0.28516 0.36328 0.38672 0.83984 0.27344 1.2891l-1.7969 7.0938c-0.16797 0.66406-0.76953 1.1328-1.4531 1.1328-0.6875 0-1.2891-0.46875-1.457-1.1328l-1.7969-7.0938c-0.11328-0.44922-0.011719-0.92578 0.27344-1.2891 0.28516-0.36328 0.71875-0.57812 1.1836-0.57812h3.5898c0.46484 0 0.89844 0.21484 1.1836 0.57812zm-32.539-32.629c0.37109 0.28125 0.58594 0.71875 0.58594 1.1836v3.5898c0 0.46484-0.21484 0.90234-0.58594 1.1836-0.26172 0.20703-0.58594 0.32031-0.91797 0.31641-0.125 0-0.25-0.015625-0.37109-0.042969l-7.0898-1.7969c-0.66797-0.16797-1.1328-0.76953-1.1328-1.4531 0-0.6875 0.46484-1.2891 1.1328-1.457l7.0898-1.7969c0.44922-0.10156 0.92188-0.003907 1.2891 0.27344zm52.422-23.418-29.492 17.578c-0.11328 0.070313-0.11719 0.22266-0.20703 0.31641-0.089843 0.089843-0.24609 0.089843-0.3125 0.20703l-17.578 29.492c-0.27734 0.46094-0.28125 1.0391-0.015625 1.5078 0.26953 0.46875 0.76562 0.75781 1.3086 0.75781 0.26953 0 0.53516-0.074218 0.76953-0.21094l29.492-17.574c0.11328-0.070312 0.11719-0.22266 0.20703-0.31641 0.089844-0.089844 0.24609-0.089844 0.3125-0.20703l17.574-29.496c0.35156-0.58984 0.25781-1.3398-0.22266-1.8242-0.49219-0.48438-1.2422-0.57812-1.8359-0.23047zm-28.422 21.293 9.1875 9.1914-22.75 13.555zm11.312 7.0664-9.1875-9.1914 22.754-13.559z"/>
</svg>