<?xml version="1.0" encoding="UTF-8"?>
<svg id="Layer_2" data-name="Layer 2" xmlns="http://www.w3.org/2000/svg" viewBox="0 0 72.1 75.69">
  <g id="Layer_1-2" data-name="Layer 1">
    <path fill="#FFFFFF" d="M52.43,75.69c-.1,0-.21-.01-.31-.03l-.74-.16c-.96-.2-1.88-.4-2.8-.6l-3.64-.81c-2.85-.63-5.7-1.26-8.54-1.89-.03,0-.07-.01-.1-.02-.15-.03-.3-.03-.44,0-5.07,1.11-10.13,2.23-15.2,3.36-.15.03-.31.06-.51.08l-.22.03c-.43.06-.87-.07-1.19-.35-.33-.29-.52-.7-.52-1.13v-1.2c0-1.36,0-2.7.03-4.04.04-1.1,1.08-1.67,1.42-1.86,3.14-1.76,6.3-3.51,9.46-5.25-.02-4.31-.02-8.57-.02-12.83v-3.73S1.96,53.83,1.96,53.83c-.46.14-.95.06-1.34-.22-.39-.28-.61-.73-.61-1.21v-1.64c0-1.81,0-3.56.03-5.31.03-1.05.95-1.75,1.35-2,9.19-5.82,18.38-11.62,27.58-17.41.04-.03.09-.05.13-.07,0-.04.03-.15.03-.19-.04-6.23-.04-12.51-.01-18.68-.08-1.94.73-3.88,2.21-5.26,1.48-1.37,3.48-2.02,5.48-1.78,3.65.37,6.38,3.56,6.21,7.25.02,6.09.01,12.26-.01,18.43,0,.04,0,.08,0,.12,0,.06.03.12.09.15.04.02.08.04.11.06,9.16,5.75,18.31,11.52,27.45,17.3.96.51,1.52,1.52,1.45,2.6-.03,1.52-.02,3.04-.02,4.6v1.82c0,.48-.22.93-.61,1.21-.39.28-.88.36-1.34.22l-27.11-8.56v3.02c0,4.51,0,9.03-.01,13.54h0c1.74.96,3.48,1.92,5.21,2.89,1.39.77,2.78,1.55,4.17,2.31,1.01.45,1.64,1.51,1.55,2.63-.03,1.02-.02,2.04-.02,3.11v1.44c0,.45-.2.88-.55,1.17-.27.22-.6.33-.94.33ZM21.22,69.63c-.02.9-.02,1.8-.02,2.71,4.66-1.04,9.33-2.07,14-3.09.51-.11,1.06-.12,1.58-.03.05,0,.09.01.14.02,2.89.63,5.77,1.27,8.66,1.91l3.64.81c.56.12,1.12.25,1.69.37,0-.92,0-1.81.02-2.7-1.4-.76-2.79-1.54-4.18-2.31-1.71-.95-3.43-1.91-5.15-2.84-1.05-.49-1.7-1.59-1.6-2.75.02-4.49.02-8.97.02-13.46v-5.07c0-.48.23-.93.61-1.21.39-.28.88-.37,1.34-.22l27.11,8.55c0-1.49,0-2.95.02-4.41-9.14-5.78-18.29-11.54-27.46-17.3-1.09-.59-1.72-1.74-1.65-2.97.03-6.14.03-12.29.01-18.43.1-2.18-1.45-3.99-3.54-4.2-1.15-.14-2.28.23-3.11,1-.84.77-1.29,1.87-1.25,3-.03,6.2-.02,12.46.01,18.66.08,1.19-.56,2.34-1.62,2.91-9.17,5.77-18.33,11.56-27.48,17.35-.03,1.45-.03,2.91-.02,4.4l27.09-8.55c.43-.13.9-.07,1.27.17s.62.65.67,1.1l.03.23c.03.23.04.39.04.56v5.13c0,4.36,0,8.73.02,13.1.04.99-.55,1.92-1.5,2.33-3.14,1.73-6.27,3.47-9.4,5.22ZM29.12,62.11s0,.03,0,.04c0-.01,0-.03,0-.04Z"/>
  </g>
</svg>