<?xml version="1.0" encoding="UTF-8"?>
<svg id="Layer_2" data-name="Layer 2" xmlns="http://www.w3.org/2000/svg" viewBox="0 0 69.11 72.69">
  <g id="Layer_2-2" data-name="Layer 2">
    <path d="M29.04,41.71L0,50.88c0-2.38-.02-4.65.03-6.92,0-.26.37-.59.65-.76,9.19-5.82,18.38-11.62,27.58-17.41.58-.29.92-.9.86-1.54-.04-6.22-.04-12.44,0-18.66-.06-1.57.57-3.09,1.73-4.16S33.56-.15,35.12.04c2.88.29,5.03,2.79,4.89,5.69.02,6.16,0,12.33,0,18.49-.06.67.3,1.31.9,1.62,9.18,5.77,18.36,11.55,27.52,17.34h0c.45.23.72.71.68,1.22-.04,2.13-.01,4.25-.01,6.49l-29.06-9.17v1.04c0,5.85,0,11.7,0,17.55h0c-.07.56.24,1.1.76,1.33,3.17,1.72,6.3,3.5,9.47,5.23.47.19.76.68.71,1.18-.05,1.5,0,3,0,4.64-1.23-.26-2.38-.5-3.52-.76-4.1-.91-8.2-1.82-12.3-2.72h0c-.36-.07-.72-.07-1.08,0-5.07,1.11-10.14,2.23-15.21,3.36-.16.04-.33.05-.61.09,0-1.76-.02-3.48.03-5.2,0-.2.39-.44.64-.58,3.19-1.79,6.4-3.56,9.6-5.33.4-.15.66-.53.64-.96-.03-6.08,0-12.16-.02-18.24,0-.16-.03-.33-.06-.62h0l-.02-.02Z"/>
  </g>
</svg>