<svg xmlns="http://www.w3.org/2000/svg" viewBox="0 0 512 512">
  <rect width="512" height="512" rx="112" fill="#0f0f0f"/>
  <circle cx="256" cy="256" r="178" fill="none" stroke="#FFC800" stroke-width="18" opacity=".9"/>
  <path d="M256 86v340M86 256h340" stroke="#FFC800" stroke-width="10" opacity=".42"/>
  <path d="M256 102c18 0 34 14 34 34v78l116 67c13 8 21 22 21 37v31L290 305v73l45 34v29l-79-23-79 23v-29l45-34v-73L85 349v-31c0-15 8-29 21-37l116-67v-78c0-20 16-34 34-34z" fill="#FFC800"/>
  <text x="256" y="476" text-anchor="middle" font-family="Arial, Helvetica, sans-serif" font-size="48" font-weight="800" fill="#FFC800" letter-spacing="8">PP</text>
</svg>
